<?xml version="1.0" encoding="UTF-8" ?>
<!DOCTYPE svg PUBLIC "-//W3C//DTD SVG 1.1//EN" "http://www.w3.org/Graphics/SVG/1.1/DTD/svg11.dtd">
<svg width="200pt" height="200pt" viewBox="0 0 200 200" version="1.1" xmlns="http://www.w3.org/2000/svg">
<g id="#005500ff">
<path fill="#005500" stroke="#005500" stroke-width="0.09375" opacity="1.00" d=" M 86.48 7.69 C 102.40 5.09 118.94 7.34 133.94 13.12 C 156.49 21.88 175.26 39.80 185.03 61.93 C 192.70 78.79 194.75 97.96 191.69 116.17 C 188.03 136.95 177.09 156.37 161.13 170.18 C 144.40 184.78 122.30 193.28 100.05 193.00 C 78.45 193.34 56.95 185.41 40.38 171.63 C 23.48 157.69 11.75 137.58 8.12 115.96 C 4.57 97.29 7.48 77.60 15.46 60.41 C 28.31 32.40 55.92 11.82 86.48 7.69 M 88.40 15.41 C 76.22 17.16 64.37 21.39 53.98 27.99 C 38.38 38.10 25.91 53.24 19.76 70.84 C 14.44 85.41 13.17 101.49 16.42 116.67 C 20.91 139.12 34.89 159.54 54.38 171.61 C 69.39 181.22 87.56 185.73 105.33 184.54 C 124.47 183.31 143.12 175.34 157.22 162.33 C 170.26 150.43 179.40 134.31 182.92 117.01 C 186.53 100.34 184.68 82.63 178.17 66.89 C 170.76 49.36 157.48 34.28 140.68 25.23 C 124.90 16.49 106.27 12.98 88.40 15.41 Z" />
</g>
<g id="#003300ff">
<path fill="#003300" stroke="#003300" stroke-width="0.09375" opacity="1.00" d=" M 88.40 15.41 C 106.27 12.98 124.90 16.49 140.68 25.23 C 157.48 34.28 170.76 49.36 178.17 66.89 C 184.68 82.63 186.53 100.34 182.92 117.01 C 179.40 134.31 170.26 150.43 157.22 162.33 C 143.12 175.34 124.47 183.31 105.33 184.54 C 87.56 185.73 69.39 181.22 54.38 171.61 C 34.89 159.54 20.91 139.12 16.42 116.67 C 13.17 101.49 14.44 85.41 19.76 70.84 C 25.91 53.24 38.38 38.10 53.98 27.99 C 64.37 21.39 76.22 17.16 88.40 15.41 M 92.83 40.60 C 87.39 43.79 81.34 46.12 76.26 49.80 C 78.21 55.37 82.04 60.19 84.68 65.50 C 86.06 67.56 86.81 71.19 90.00 70.77 C 96.80 70.57 103.60 70.88 110.39 70.62 C 114.48 63.80 118.35 56.85 122.21 49.89 C 115.58 45.70 108.40 42.44 101.54 38.66 C 98.51 36.91 95.45 39.21 92.83 40.60 M 67.26 54.22 C 61.35 57.35 55.49 60.56 49.55 63.60 C 47.82 64.45 45.87 65.73 46.06 67.94 C 46.27 75.99 47.61 83.97 48.50 91.97 C 48.43 93.23 49.73 94.07 50.90 93.96 C 56.62 94.14 62.34 94.17 68.06 94.27 C 71.02 94.69 72.34 91.56 73.50 89.44 C 75.78 84.84 78.61 80.53 80.85 75.92 C 82.15 73.70 80.27 71.56 79.30 69.64 C 76.08 64.38 73.38 58.82 70.04 53.65 C 69.34 53.79 67.95 54.08 67.26 54.22 M 119.52 68.40 C 118.47 70.74 115.64 73.19 117.19 75.91 C 119.83 80.87 122.69 85.71 125.27 90.69 C 126.18 92.48 127.64 94.55 129.94 94.28 C 136.00 94.12 142.07 94.23 148.12 93.86 C 150.37 92.88 149.75 89.88 150.21 87.92 C 150.55 81.54 151.68 75.25 152.22 68.90 C 152.69 66.33 150.45 64.46 148.38 63.48 C 141.78 60.14 135.30 56.60 128.76 53.14 C 124.90 57.68 122.77 63.42 119.52 68.40 M 86.97 78.74 C 84.26 83.96 80.88 88.81 78.14 94.02 C 77.29 95.72 76.39 97.81 77.58 99.60 C 80.97 105.09 83.99 110.79 87.40 116.27 C 92.48 117.75 97.81 116.94 103.02 117.16 C 105.99 117.04 109.93 117.68 111.71 114.63 C 114.76 109.70 117.41 104.52 120.51 99.62 C 122.07 95.06 118.11 91.34 116.23 87.58 C 114.05 84.51 112.92 80.47 109.86 78.17 C 106.02 77.30 101.99 78.04 98.07 77.84 C 94.38 78.04 90.45 77.08 86.97 78.74 M 50.64 100.96 C 54.24 115.74 61.12 129.50 69.68 142.02 C 73.17 136.05 76.60 130.05 79.99 124.02 C 80.80 122.51 81.78 120.76 80.82 119.07 C 78.77 114.64 76.15 110.51 73.82 106.23 C 72.69 104.45 71.93 102.12 69.84 101.22 C 63.46 100.75 57.04 101.03 50.64 100.96 M 128.22 101.24 C 125.57 102.62 124.74 105.83 123.15 108.17 C 120.99 112.47 117.93 116.43 116.65 121.09 C 120.24 128.19 124.37 135.03 128.39 141.89 C 136.98 129.50 144.00 115.76 147.29 100.96 C 140.93 101.02 134.56 100.75 128.22 101.24 M 88.20 124.35 C 86.93 124.58 86.66 126.11 85.95 127.00 C 82.39 133.41 78.71 139.76 75.06 146.12 C 74.05 147.43 74.93 149.11 75.93 150.10 C 82.16 157.17 88.91 163.85 96.54 169.40 C 98.14 170.87 100.51 170.45 102.00 169.07 C 109.57 163.41 116.44 156.80 122.53 149.59 C 124.54 147.72 122.51 145.33 121.57 143.49 C 117.66 137.29 114.58 130.55 110.40 124.53 C 103.13 123.66 95.54 124.00 88.20 124.35 Z" />
</g>
<g id="#ffffffff">
<path fill="#ffffff" stroke="#ffffff" stroke-width="0.09375" opacity="1.00" d=" M 92.83 40.60 C 95.45 39.21 98.51 36.91 101.54 38.66 C 108.40 42.44 115.58 45.70 122.21 49.89 C 118.35 56.85 114.48 63.80 110.39 70.62 C 103.60 70.88 96.80 70.57 90.00 70.77 C 86.81 71.19 86.06 67.56 84.68 65.50 C 82.04 60.19 78.21 55.37 76.26 49.80 C 81.34 46.12 87.39 43.79 92.83 40.60 Z" />
<path fill="#ffffff" stroke="#ffffff" stroke-width="0.09375" opacity="1.00" d=" M 67.26 54.22 C 67.95 54.08 69.34 53.79 70.04 53.65 C 73.38 58.82 76.08 64.38 79.30 69.64 C 80.27 71.56 82.15 73.70 80.85 75.92 C 78.61 80.53 75.78 84.84 73.50 89.44 C 72.34 91.56 71.02 94.69 68.06 94.27 C 62.34 94.17 56.62 94.14 50.90 93.96 C 49.73 94.07 48.43 93.23 48.50 91.97 C 47.61 83.97 46.27 75.99 46.06 67.94 C 45.87 65.73 47.82 64.45 49.55 63.60 C 55.49 60.56 61.35 57.35 67.26 54.22 Z" />
<path fill="#ffffff" stroke="#ffffff" stroke-width="0.09375" opacity="1.00" d=" M 119.52 68.40 C 122.77 63.42 124.90 57.68 128.76 53.14 C 135.30 56.60 141.78 60.14 148.38 63.48 C 150.45 64.46 152.69 66.33 152.22 68.90 C 151.68 75.25 150.55 81.54 150.21 87.92 C 149.75 89.88 150.37 92.88 148.12 93.86 C 142.07 94.23 136.00 94.12 129.94 94.28 C 127.64 94.55 126.18 92.48 125.27 90.69 C 122.69 85.71 119.83 80.87 117.19 75.91 C 115.64 73.19 118.47 70.74 119.52 68.40 Z" />
<path fill="#ffffff" stroke="#ffffff" stroke-width="0.09375" opacity="1.00" d=" M 86.97 78.74 C 90.45 77.08 94.38 78.04 98.07 77.84 C 101.99 78.04 106.02 77.30 109.86 78.17 C 112.92 80.47 114.05 84.51 116.23 87.58 C 118.11 91.34 122.07 95.06 120.51 99.62 C 117.41 104.52 114.76 109.70 111.71 114.63 C 109.93 117.68 105.99 117.04 103.02 117.16 C 97.81 116.94 92.48 117.75 87.40 116.27 C 83.99 110.79 80.97 105.09 77.58 99.60 C 76.39 97.81 77.29 95.72 78.14 94.02 C 80.88 88.81 84.26 83.96 86.97 78.74 Z" />
<path fill="#ffffff" stroke="#ffffff" stroke-width="0.09375" opacity="1.00" d=" M 50.64 100.96 C 57.04 101.03 63.46 100.75 69.84 101.22 C 71.93 102.12 72.69 104.45 73.82 106.23 C 76.15 110.51 78.77 114.64 80.82 119.07 C 81.78 120.76 80.80 122.51 79.99 124.02 C 76.60 130.05 73.17 136.05 69.68 142.02 C 61.12 129.50 54.24 115.74 50.64 100.96 Z" />
<path fill="#ffffff" stroke="#ffffff" stroke-width="0.09375" opacity="1.00" d=" M 128.22 101.24 C 134.56 100.75 140.93 101.02 147.29 100.96 C 144.00 115.76 136.98 129.50 128.39 141.89 C 124.37 135.03 120.24 128.19 116.65 121.09 C 117.93 116.43 120.99 112.47 123.15 108.17 C 124.74 105.83 125.57 102.62 128.22 101.24 Z" />
<path fill="#ffffff" stroke="#ffffff" stroke-width="0.09375" opacity="1.00" d=" M 88.20 124.35 C 95.54 124.00 103.13 123.66 110.40 124.53 C 114.58 130.55 117.66 137.29 121.57 143.49 C 122.51 145.33 124.54 147.72 122.53 149.59 C 116.44 156.80 109.57 163.41 102.00 169.07 C 100.51 170.45 98.14 170.87 96.54 169.40 C 88.91 163.85 82.16 157.17 75.93 150.10 C 74.93 149.11 74.05 147.43 75.06 146.12 C 78.71 139.76 82.39 133.41 85.95 127.00 C 86.66 126.11 86.93 124.58 88.20 124.35 Z" />
</g>
</svg>

